<svg viewBox="0 0 25 25" xmlns="http://www.w3.org/2000/svg" stroke="black" fill="none" stroke-width="2">
<polyline points="2.5,14.82 2.91,15.18 3.32,15.54 3.72,15.88 4.13,16.22 4.54,16.55 4.95,16.87 5.36,17.18 5.77,17.47 6.17,17.75 6.58,18.02 6.99,18.27 7.4,18.51 7.81,18.73 8.21,18.94 8.62,19.13 9.03,19.3 9.44,19.45 9.85,19.59 10.26,19.7 10.66,19.8 11.07,19.88 11.48,19.94 11.89,19.98 12.3,20 12.7,20 13.11,19.98 13.52,19.94 13.93,19.88 14.34,19.8 14.74,19.7 15.15,19.59 15.56,19.45 15.97,19.3 16.38,19.13 16.79,18.94 17.19,18.73 17.6,18.51 18.01,18.27 18.42,18.02 18.83,17.75 19.23,17.47 19.64,17.18 20.05,16.87 20.46,16.55 20.87,16.22 21.28,15.88 21.68,15.54 22.09,15.18 22.5,14.82" />
<polyline points="2.5,10.18 2.91,9.82 3.32,9.46 3.72,9.12 4.13,8.78 4.54,8.45 4.95,8.13 5.36,7.82 5.77,7.53 6.17,7.25 6.58,6.98 6.99,6.73 7.4,6.49 7.81,6.27 8.21,6.06 8.62,5.87 9.03,5.7 9.44,5.55 9.85,5.41 10.26,5.3 10.66,5.2 11.07,5.12 11.48,5.06 11.89,5.02 12.3,5 12.7,5 13.11,5.02 13.52,5.06 13.93,5.12 14.34,5.2 14.74,5.3 15.15,5.41 15.56,5.55 15.97,5.7 16.38,5.87 16.79,6.06 17.19,6.27 17.6,6.49 18.01,6.73 18.42,6.98 18.83,7.25 19.23,7.53 19.64,7.82 20.05,8.13 20.46,8.45 20.87,8.78 21.28,9.12 21.68,9.46 22.09,9.82 22.5,10.18" />
<ellipse cx="12.5" cy="12.5" rx="1.5" ry="1.5" fill="black" />
</svg>
